<svg xmlns="http://www.w3.org/2000/svg" viewBox="0 0 267.83 197.48"><defs><style>.cls-1{fill:#fff;}.cls-2{fill:#020202;}.cls-3{fill:none;stroke:#231f20;stroke-linecap:round;stroke-linejoin:round;stroke-width:0.5px;}</style></defs><title>Easy</title><g id="Layer_2" data-name="Layer 2"><g id="Layer_1-2" data-name="Layer 1"><path d="M267.58,17.25V99.92l0,21.38-63.44,75.93S171.25,185.9,134,185.9s-70.62,11.33-70.62,11.33L.25,121.36V.25H267.58Zm-17,82.67V17.25H17.25V99.92s42.67-10,116.67-10S250.58,99.92,250.58,99.92Z"/><path class="cls-1" d="M250.58,17.25V99.92s-42.66-10-116.66-10-116.67,10-116.67,10V17.25Zm-12,18.33v-7h-20.7v7H224L213.3,52l-9.67-16.38h6.14v-7h-20.7v7h6.43l14.19,24,.59,13.59c-5.35-.7-10.5-1.09-14.47-1.24v7.25A114.14,114.14,0,0,1,232,85.56V78.31a70.07,70.07,0,0,0-14.67-4l-.64-14.72,15.69-24ZM185,48.1V28.58h-6.28v7C174.3,31.31,168.37,29,160.25,29c-9.83,0-17.94,4.65-17.94,13.72,0,11.91,11.05,14.17,21.77,14.17s14.12,4.16,14.12,9c0,3.51-6.2,6.91-13.57,7a22.12,22.12,0,0,1-15.19-5.61V61.08h-6.28V78.79h6.28V75.41A33.08,33.08,0,0,0,164.71,79c11,0,20.87-2.18,20.87-14.14,0-11.79-11.33-15.42-21.36-15.42-13.84,0-15.47-3.37-15.47-7.58s6.26-6.29,13.38-6.29,13.57,2.74,16.63,7.83V48.1ZM140,78.79v-7h-6.91L117.31,35.58h9.59v-7H93.76v7H104.2L90.35,71.79H80.25v7h27.64v-7h-10l3.45-9h20.23l3.93,9H114.77v7Zm-63.51,0V58.58H70.21v12.3A164.07,164.07,0,0,0,40.5,75.54v-18H53v6.26h6.28V44.31H53v6.26H40.5v-15H70.21V48.1h6.28V28.58h-43v7h0v15h0v7h0V77.83h0v8.25A142.93,142.93,0,0,1,76.49,78.79Z"/><path d="M238.59,28.58v7h-6.21l-15.69,24,.64,14.72a70.07,70.07,0,0,1,14.67,4v7.25a114.14,114.14,0,0,0-36.19-6.35V72c4,.15,9.12.54,14.47,1.24l-.59-13.59-14.19-24h-6.43v-7h20.7v7h-6.14L213.3,52,224,35.58h-6.12v-7Z"/><path d="M185,28.58V48.1h-6.28V43.41c-3.06-5.09-9.52-7.83-16.63-7.83s-13.38,2.08-13.38,6.29,1.63,7.58,15.47,7.58c10,0,21.36,3.63,21.36,15.42,0,12-9.83,14.14-20.87,14.14a33.08,33.08,0,0,1-15.27-3.6v3.38h-6.28V61.08h6.28v6.16a22.12,22.12,0,0,0,15.19,5.61c7.37-.06,13.57-3.46,13.57-7,0-4.8-3.4-9-14.12-9s-21.77-2.26-21.77-14.17c0-9.07,8.11-13.72,17.94-13.72,8.12,0,14.05,2.28,18.51,6.55v-7Z"/><path d="M140,71.79v7H114.77v-7h10.68l-3.93-9H101.29l-3.45,9h10v7H80.25v-7h10.1L104.2,35.58H93.76v-7H126.9v7h-9.59l15.78,36.21Zm-21.53-16-7.72-17.72L104,55.77Z"/><polygon class="cls-1" points="110.75 38.05 118.47 55.77 103.97 55.77 110.75 38.05"/><path class="cls-2" d="M76.49,78.1v.69a142.93,142.93,0,0,0-43,7.29V77.83h0V57.57h0v-7h0v-15h0v-7h43V48.1H70.21V35.58H40.5v15H53V44.31h6.28V63.83H53V57.57H40.5v18a164.07,164.07,0,0,1,29.71-4.66V58.58h6.28V78.1Z"/><path class="cls-3" d="M267.58,17.25V99.92l0,21.38-63.44,75.93S171.25,185.9,134,185.9s-70.62,11.33-70.62,11.33L.25,121.36V.25H267.58Zm-17,82.67V17.25H17.25V99.92s42.67-10,116.67-10S250.58,99.92,250.58,99.92Z"/><path class="cls-3" d="M250.58,17.25V99.92s-42.66-10-116.66-10-116.67,10-116.67,10V17.25Zm-12,18.33v-7h-20.7v7H224L213.3,52l-9.67-16.38h6.14v-7h-20.7v7h6.43l14.19,24,.59,13.59c-5.35-.7-10.5-1.09-14.47-1.24v7.25A114.14,114.14,0,0,1,232,85.56V78.31a70.07,70.07,0,0,0-14.67-4l-.64-14.72,15.69-24ZM185,48.1V28.58h-6.28v7C174.3,31.31,168.37,29,160.25,29c-9.83,0-17.94,4.65-17.94,13.72,0,11.91,11.05,14.17,21.77,14.17s14.12,4.16,14.12,9c0,3.51-6.2,6.91-13.57,7a22.12,22.12,0,0,1-15.19-5.61V61.08h-6.28V78.79h6.28V75.41A33.08,33.08,0,0,0,164.71,79c11,0,20.87-2.18,20.87-14.14,0-11.79-11.33-15.42-21.36-15.42-13.84,0-15.47-3.37-15.47-7.58s6.26-6.29,13.38-6.29,13.57,2.74,16.63,7.83V48.1ZM140,78.79v-7h-6.91L117.31,35.58h9.59v-7H93.76v7H104.2L90.35,71.79H80.25v7h27.64v-7h-10l3.45-9h20.23l3.93,9H114.77v7Zm-63.51,0V58.58H70.21v12.3A164.07,164.07,0,0,0,40.5,75.54v-18H53v6.26h6.28V44.31H53v6.26H40.5v-15H70.21V48.1h6.28V28.58h-43v7h0v15h0v7h0V77.83h0v8.25A142.93,142.93,0,0,1,76.49,78.79Z"/><path class="cls-3" d="M238.59,28.58v7h-6.21l-15.69,24,.64,14.72a70.07,70.07,0,0,1,14.67,4v7.25a114.14,114.14,0,0,0-36.19-6.35V72c4,.15,9.12.54,14.47,1.24l-.59-13.59-14.19-24h-6.43v-7h20.7v7h-6.14L213.3,52,224,35.58h-6.12v-7Z"/><path class="cls-3" d="M185,28.58V48.1h-6.28V43.41c-3.06-5.09-9.52-7.83-16.63-7.83s-13.38,2.08-13.38,6.29,1.63,7.58,15.47,7.58c10,0,21.36,3.63,21.36,15.42,0,12-9.83,14.14-20.87,14.14a33.08,33.08,0,0,1-15.27-3.6v3.38h-6.28V61.08h6.28v6.16a22.12,22.12,0,0,0,15.19,5.61c7.37-.06,13.57-3.46,13.57-7,0-4.8-3.4-9-14.12-9s-21.77-2.26-21.77-14.17c0-9.07,8.11-13.72,17.94-13.72,8.12,0,14.05,2.28,18.51,6.55v-7Z"/><path class="cls-3" d="M140,71.79v7H114.77v-7h10.68l-3.93-9H101.29l-3.45,9h10v7H80.25v-7h10.1L104.2,35.58H93.76v-7H126.9v7h-9.59l15.78,36.21Zm-21.53-16-7.72-17.72L104,55.77Z"/><polygon class="cls-3" points="110.75 38.05 118.47 55.77 103.97 55.77 110.75 38.05"/><path class="cls-3" d="M76.49,78.1v.69a142.93,142.93,0,0,0-43,7.29V77.83h0V57.57h0v-7h0v-15h0v-7h43V48.1H70.21V35.58H40.5v15H53V44.31h6.28V63.83H53V57.57H40.5v18a164.07,164.07,0,0,1,29.71-4.66V58.58h6.28V78.1Z"/></g></g></svg>