<svg xmlns="http://www.w3.org/2000/svg" viewBox="0 0 740.07 418.43"><defs><style>.cls-1{fill:#231f20;}.cls-2{fill:#fff;}</style></defs><title>Juggling</title><g id="Layer_2" data-name="Layer 2"><g id="Layer_1-2" data-name="Layer 1"><path class="cls-1" d="M23.44,356.89l29.08,58.57c31.18-9.28,80.08-18.8,80.08-18.8L151,369.34l16.24,21.15,44.54-6.37,15.72-29.69,15.25,25,57.59-4.09,23.56,10.34L324,353,343,374.51c13.12,0,29-2.25,52,0l19.76,12.17V373.43c65.87,3.68,154.73,14.4,193.71,21.56L620,366.34l9,33.89c21.06,3.84,53.15,12.95,67,18.2L739,362s-47.62-93.33-369.61-93.33S23.44,356.89,23.44,356.89Z"/><path class="cls-2" d="M13,55.34,68.17,73.05V282.18c0,6.37-.89,11.8-8.5,13.83-7.25,1.94-11.61-4.71-11.61-10.83V143L13,140V310.49l17.85,32.82L86,328.11l17.85-43V43.9L13,17.34Z"/><path d="M107.52,31.42,16.65,4.87,0,0V64.82l9,2.9L55.17,82.53v48l-6-.51-35.06-3L0,125.85v188l1.58,2.9,17.85,32.82,4.93,9.06,9.94-2.74,55.18-15.2L95.6,339,98,333.09l17.85-43,1-2.39V34.16Zm-3.65,253.7L86,328.11l-55.17,15.2L13,310.49V140l35.06,3V285.18c0,6.12,4.36,12.77,11.61,10.83,7.61-2,8.5-7.46,8.5-13.83V73.05L13,55.34v-38L103.87,43.9Z"/><path class="cls-2" d="M172,261c0,4.83-2,11.49-9.74,12.76-7.21,1.18-9.74-5.59-9.74-9.56V53.58l-35.7-6.87v235.6l19.15,35,53.88-9,17.85-39.66V62L172,56.84Z"/><path d="M209.57,49.09,173.87,44l-9.67-1.39L155,40.81l-35.7-6.87-15.46-3V285.64l1.6,2.91,19.14,35,4.44,8.11,9.11-1.52,53.88-9,6.86-1.14,2.85-6.34L219.58,274l1.15-2.54V50.68Zm-1.84,219.59-17.85,39.66-53.88,9-19.15-35V46.71l35.7,6.87V264.21c0,4,2.53,10.74,9.74,9.56,7.76-1.27,9.74-7.93,9.74-12.76V56.84L207.73,62Z"/><path class="cls-2" d="M238.56,65.52l-17.85,40.16V265.47l17.85,36.89,55.17-4.45,17.85,13.36V161.68l-54.2-3.34,18.5,21v70.17c0,4.33-2.35,10.89-9.73,11.47-7.2.55-9.74-5.8-9.74-10V113.44c0-2.37,3.86-8.49,11-7.84s8.43,6,8.43,7.84V134l35.7,2.33V103.68L293.73,70Z"/><path d="M323.07,97.59,305.22,63.88l-3.33-6.3L294.78,57,239.6,52.56l-9.18-.74-3.74,8.42L208.83,100.4l-1.12,2.52V268.45l1.3,2.68L226.86,308l3.87,8,8.87-.71,50.28-4.06,13.91,10.41,20.79,15.56V100.45Zm-11.49,38.75L275.88,134V113.44c0-1.85-1.24-7.18-8.43-7.84s-11,5.47-11,7.84V251c0,4.15,2.54,10.5,9.74,10,7.38-.58,9.73-7.14,9.73-11.47V179.34l-18.5-21,54.2,3.34V311.27l-17.85-13.36-55.17,4.45-17.85-36.89V105.68l17.85-40.16L293.73,70l17.85,33.72Z"/><path class="cls-2" d="M342.41,71.68,324.56,107V257.62L344,295.72h53l18.55,14v-148l-52.19.13,16.31,20.57v62c0,3.34-.84,12.52-9.61,12.52s-9.8-8.35-9.8-12v-126c0-2.27,2.13-9.29,9.74-9.29s9.67,5.93,9.67,7.33v19l35.88-.25V110.12l-18-38.44Z"/><path d="M427.33,104.62l-18-38.45-3.5-7.49H334.42l-3.61,7.13L313,101.15l-1.4,2.76V260.75l1.42,2.78,19.44,38.09,3.62,7.1h56.61l15.07,11.37,20.83,15.72V148.64l-12.92,0h0l12.9-.1V107.24Zm-11.78,31.06-35.88.25v-19c0-1.4-2.06-7.33-9.67-7.33s-9.74,7-9.74,9.29v126c0,3.61,1,12,9.8,12s9.61-9.18,9.61-12.52v-62l-16.31-20.57,52.19-.13v148l-18.55-14H344l-19.44-38.1V107l17.85-35.33h55.18l18,38.44Z"/><polygon class="cls-2" points="464.12 69.01 428.42 70.77 428.42 297.11 519.29 304.59 519.29 265.73 464.12 260.01 464.12 69.01"/><path d="M520.63,252.8l-43.51-4.51V55.35L463.48,56l-35.7,1.75-12.36.61V309.08l11.93,1,90.88,7.48,14.06,1.16V254Zm-1.34,51.79-90.87-7.48V70.77L464.12,69V260l55.17,5.72Z"/><polygon class="cls-2" points="483.59 243.34 519.29 245.68 519.29 63.01 483.59 67.01 483.59 243.34"/><path d="M517.85,50.09l-35.7,4-11.56,1.29V255.52l12.15.79,35.7,2.34,13.85.9V48.47Zm1.44,195.59-35.7-2.34V67l35.7-4Z"/><polygon class="cls-2" points="587.45 183.34 567.97 56.38 532.27 61.68 532.27 306.12 567.97 311.34 567.97 183.94 588.33 314.6 623.15 321.46 623.15 46.41 587.45 53.27 587.45 183.34"/><path d="M620.69,33.65,585,40.51l-6.12,1.17v-.06l-12.8,1.9-35.7,5.3-11.09,1.64v266.9L530.39,319l35.7,5.21,14.37,2.1,5.36,1.06,34.81,6.85,15.52,3.06V30.68Zm2.46,287.81-34.82-6.86L568,173.52V311.34l-35.7-5.22V61.68l35.7-5.3,19.48,127V53.27l35.7-6.86Z"/><path class="cls-2" d="M709.15,343.31,727,362V132l-53.33,11,17.63,24.33S690.67,283,690.67,287s-2.2,11.43-9.65,9.15a12.78,12.78,0,0,1-9.19-12.48V82.77c0-4.66,4.9-11.89,9.77-13.16s9.7,3.69,9.7,7.94v37.13L727.06,106,727,51,709.15,24.47,654,39.51,636.13,80.68V286L654,328.36Z"/><polygon class="cls-2" points="733.5 378.24 733.5 370.09 729.95 374.51 733.5 378.24"/><path d="M740.06,106,740,51V47l-2.21-3.29L719.94,17.22l-5.21-7.75-9,2.46L650.56,27l-6,1.64-2.48,5.73L624.2,75.51,623.13,78V288.64l1,2.42L642,333.41l2.46,5.84,6.12,1.66,51.67,14L717.6,371l12.34,3.52h0l3.56-4.42L740,362V116.25l.07,0ZM636.13,80.68,654,39.51l55.17-15L727,51l.06,55-35.76,8.67V77.55c0-4.25-4.83-9.2-9.7-7.94s-9.77,8.5-9.77,13.16V283.68A12.78,12.78,0,0,0,681,296.16c7.45,2.28,9.65-5.15,9.65-9.15s.63-119.67.63-119.67L673.67,143,727,132V362l-17.85-18.7L654,328.36,636.13,286Z"/><polyline class="cls-1" points="0.37 65.52 30.37 130.01 55.03 133.34 55.03 82.77 3.04 65.52"/></g></g></svg>